# xmcd CD database file
#
# Track frame offsets:
#	150
#	20465
#	36047
#	53875
#	73094
#	91271
#	110918
#	126986
#	143677
#	158209
#	174263
#	190291
#	208386
#	224587
#	243239
#	259357
#	277148
#	297300
#	314586
#	344883
#
# Disc length: 4791 seconds
#
# Revision: 1
# Processed by: cddbd v1.5.1PL0 Copyright (c) Steve Scherf et al.
# Submitted via: CDex 1.51
#
DISCID=4f12b514
DTITLE=Craig Wiseman - Craig Wiseman
DYEAR=1900
DGENRE=Country
TTITLE0=Young
TTITLE1=i'll Be Around
TTITLE2=Another Day In Paradise
TTITLE3=Everywhere
TTITLE4=Walkin' Away
TTITLE5=July
TTITLE6=Heartthrob
TTITLE7=She Loved Me
TTITLE8=Where The Green Grass Grows
TTITLE9=Back
TTITLE10=The Good Stuff
TTITLE11=Radio
TTITLE12=I'm Diggin' It
TTITLE13=Harder Cards
TTITLE14=Water And Bridges
TTITLE15=Bang, Bang, Bang
TTITLE16=And The Crowd Goes Wild
TTITLE17=Calling Me
TTITLE18=Comfortime
TTITLE19=Lorn
EXTD=
EXTT0=
EXTT1=
EXTT2=
EXTT3=
EXTT4=
EXTT5=
EXTT6=
EXTT7=
EXTT8=
EXTT9=
EXTT10=
EXTT11=
EXTT12=
EXTT13=
EXTT14=
EXTT15=
EXTT16=
EXTT17=
EXTT18=
EXTT19=
PLAYORDER=
